<svg xmlns:xlink="http://www.w3.org/1999/xlink" width="85" height="40" viewBox="0 0 24.00 24.00" xmlns="http://www.w3.org/2000/svg" fill="#000000"><g id="SVGRepo_bgCarrier" stroke-width="0px"></g><g id="SVGRepo_tracerCarrier" stroke-linecap="round" stroke-linejoin="round" stroke="#CCCCCC" stroke-width="0.048px"></g><g id="SVGRepo_iconCarrier"> <defs> <style>.cls-1{fill:none;stroke:#192c53;stroke-linecap:round;stroke-linejoin:round;stroke-width:1.5px;fill-rule:evenodd;}</style> </defs> <g id="ic-shopping-t-shirt"> <path class="cls-1" d="M2,3.21v6a.18.18,0,0,0,.13.18l2.74,1a.21.21,0,0,1,.13.19V20a2,2,0,0,0,2,2H17a2,2,0,0,0,2-2V10.56a.22.22,0,0,1,.14-.2l2.73-1A.18.18,0,0,0,22,9.22v-6a.2.2,0,0,0-.17-.2L16.15,2a.21.21,0,0,0-.22.12L14.86,4.39A3.17,3.17,0,0,1,12,6.2h0A3.17,3.17,0,0,1,9.14,4.39L8.07,2.13A.21.21,0,0,0,7.85,2L2.17,3A.2.2,0,0,0,2,3.21Z" stroke="#192C53" fill="none" stroke-width="1.5px"></path> </g> </g></svg>